<mxfile host="app.diagrams.net" modified="2023-09-13T02:27:29.280Z" agent="Mozilla/5.0 (Windows NT 10.0; Win64; x64) AppleWebKit/537.36 (KHTML, like Gecko) Chrome/116.0.0.0 Safari/537.36 Edg/116.0.1938.69" version="21.6.9" etag="qHjneCBAt1j9gR5eUkzm" type="github">
  <diagram name="第 1 页" id="Z8WwlEGkJusWh6MQ3Q4n">
    <mxGraphModel>
      <root>
        <mxCell id="0" />
        <mxCell id="1" parent="0" />
      </root>
    </mxGraphModel>
  </diagram>
</mxfile>
